<?xml version="1.0" standalone="no"?>
<!DOCTYPE svg PUBLIC "-//W3C//DTD SVG 20010904//EN"
 "http://www.w3.org/TR/2001/REC-SVG-20010904/DTD/svg10.dtd">
<svg version="1.0" xmlns="http://www.w3.org/2000/svg"
 width="900.000000pt" height="900.000000pt" viewBox="0 0 900.000000 900.000000"
 preserveAspectRatio="xMidYMid meet">

<g transform="translate(0.000000,900.000000) scale(0.100000,-0.100000)"
fill="#000000" stroke="none">
<path d="M3825 8094 c-85 -11 -252 -50 -345 -81 -611 -201 -1064 -712 -1200
-1352 -30 -143 -36 -293 -30 -762 l5 -403 18 56 c35 112 137 219 257 270 l55
23 795 6 c865 6 830 4 990 64 272 103 500 367 551 638 7 34 15 76 20 92 4 17
8 -156 8 -384 l1 -413 288 5 c305 5 344 10 482 62 246 94 446 304 530 558 13
37 26 67 30 67 14 0 20 -125 20 -406 l0 -284 39 0 c64 0 165 -37 228 -84 72
-52 125 -122 158 -207 l25 -64 -3 535 -3 535 -27 113 c-170 718 -670 1218
-1389 1389 l-113 27 -680 2 c-374 1 -693 0 -710 -2z"/>
<path d="M3500 5593 c-151 -79 -160 -289 -16 -377 143 -89 322 4 334 172 8
119 -83 221 -206 230 -48 3 -66 -1 -112 -25z"/>
<path d="M5300 5593 c-151 -79 -160 -289 -16 -377 143 -89 322 4 334 172 8
119 -83 221 -206 230 -48 3 -66 -1 -112 -25z"/>
<path d="M4477 5057 c-3 -8 -1 -20 4 -28 4 -8 11 -37 15 -66 3 -29 12 -58 20
-64 8 -6 14 -30 14 -53 0 -23 5 -47 11 -53 6 -6 13 -46 16 -89 3 -44 10 -87
15 -97 5 -9 13 -45 18 -80 5 -34 14 -84 19 -112 24 -116 33 -257 28 -430 -7
-219 -13 -265 -36 -265 -32 0 -171 115 -171 141 0 4 -9 10 -19 14 -11 3 -22
14 -25 23 -3 9 -25 37 -49 62 -24 25 -46 53 -50 63 -3 9 -11 17 -17 17 -5 0
-10 6 -10 13 0 18 -63 77 -82 77 -33 0 -29 -22 10 -64 22 -23 47 -54 56 -68 9
-13 36 -47 61 -74 25 -27 45 -54 45 -62 0 -7 11 -17 25 -22 14 -5 25 -14 25
-19 0 -29 139 -138 187 -147 18 -3 44 -3 57 0 23 6 24 10 31 133 9 156 -1 561
-16 623 -5 25 -15 74 -20 110 -6 36 -15 69 -20 74 -5 6 -9 30 -9 55 -1 26 -5
66 -11 91 -6 25 -14 69 -19 98 -5 30 -15 61 -23 70 -8 10 -18 40 -22 67 -4 28
-12 56 -17 63 -14 16 -35 15 -41 -1z"/>
<path d="M3181 4007 c-8 -11 21 -36 142 -119 525 -362 825 -488 1162 -488 338
0 599 113 1055 458 157 119 147 109 128 128 -14 14 -27 7 -144 -84 -340 -263
-581 -391 -819 -438 -118 -23 -319 -23 -437 0 -249 48 -536 192 -929 466 -71
50 -133 90 -138 90 -4 0 -14 -6 -20 -13z"/>
<path d="M2885 2243 c-144 -14 -455 -93 -580 -148 -323 -143 -529 -281 -749
-501 -220 -220 -358 -426 -501 -749 -77 -176 -143 -474 -153 -697 l-7 -148
3604 0 3604 0 -6 147 c-9 223 -73 519 -152 698 -143 323 -281 529 -501 749
-220 220 -426 358 -749 501 -178 78 -472 143 -691 152 l-151 6 -6 -114 c-14
-251 -114 -509 -282 -724 -186 -238 -439 -402 -746 -482 -98 -26 -117 -28
-319 -28 -202 0 -221 2 -319 28 -307 80 -560 244 -746 482 -167 214 -268 473
-282 723 l-6 112 -111 -2 c-61 -1 -129 -3 -151 -5z"/>
</g>
</svg>
